<?xml version="1.0" encoding="utf-8"?>
<!-- Generator: Adobe Illustrator 16.0.0, SVG Export Plug-In . SVG Version: 6.00 Build 0)  -->
<!DOCTYPE svg PUBLIC "-//W3C//DTD SVG 1.1//EN" "http://www.w3.org/Graphics/SVG/1.1/DTD/svg11.dtd">
<svg version="1.1" id="Слой_1" xmlns="http://www.w3.org/2000/svg" xmlns:xlink="http://www.w3.org/1999/xlink" x="0px" y="0px"
	 width="83.64px" height="68.4px" viewBox="0 0 83.64 68.4" enable-background="new 0 0 83.64 68.4" xml:space="preserve">
<g>
	<g>
		<path fill="#00BBC5" d="M62.092,25.315c-11.879,0-21.541,9.662-21.541,21.54c0,11.882,9.662,21.547,21.541,21.547
			c11.883,0,21.547-9.665,21.547-21.547C83.639,34.978,73.975,25.315,62.092,25.315z M62.092,66.027
			c-10.57,0-19.17-8.599-19.17-19.172c0-10.571,8.6-19.167,19.17-19.167s19.17,8.596,19.17,19.167
			C81.262,57.429,72.662,66.027,62.092,66.027z M32.165,19.375l0.952-0.047c2.953-0.132,5.937-0.593,8.865-1.352l0.912-0.243
			l0.292,0.897c0.74,2.258,1.256,4.558,1.557,6.863c0.664-0.535,1.344-1.037,2.047-1.512c-0.33-1.952-0.822-3.904-1.494-5.957
			l-0.299-0.927l0.914-0.325c2.303-0.819,4.6-1.848,6.814-3.045l0.766-0.415l0.516,0.697c1.328,1.791,2.436,3.708,3.301,5.714
			c0.787-0.135,1.602-0.236,2.463-0.297C55.58,9.089,45.922,1.624,34.817,0.247l-0.183-0.025c-1.256-0.148-2.496-0.223-3.678-0.223
			c-1.155,0-2.315,0.065-3.545,0.205l-0.269,0.038C11.669,2.135,0.001,15.394,0.001,31.073c0,17.137,13.887,31.076,30.956,31.076
			c2.571,0,5.137-0.32,7.63-0.949c-0.419-0.689-0.795-1.197-1.135-2.038c-0.023-0.046-0.879,0.274-1.526,0.353
			c-0.092,0.011,1.097-1.326,1.097-1.326c-0.366-0.803-0.672-1.531-0.961-2.383c-0.641,0.898-1.34,1.827-2.111,2.811l-1.011,1.289
			c-0.262,0.021-0.517,0.043-0.774,0.051V45.128l1.046,0.044c0.465,0.022,0.933,0.05,1.394,0.089c0.044-0.754,0.119-1.5,0.222-2.246
			c-0.554-0.049-1.132-0.084-1.709-0.111l-0.952-0.047V32.283h6.585c0.515-0.817,1.071-1.614,1.67-2.381h-8.255V19.375z
			 M39.929,3.815c4.137,1.367,7.983,3.714,11.125,6.806l0.975,0.961l-1.219,0.643c-1.844,0.96-3.773,1.8-5.73,2.498l-0.877,0.305
			l-0.373-0.853c-1.338-3.07-3.076-6.121-5.024-8.823l-1.805-2.5L39.929,3.815z M32.165,2.223c0.344,0.02,0.704,0.042,1.081,0.069
			l0.646,0.686c1.776,1.895,5.142,5.918,7.704,11.597l0.498,1.094l-1.171,0.285c-2.557,0.619-5.149,0.99-7.712,1.109l-1.046,0.043
			V2.223z M11.037,10.489c3.094-3.013,6.889-5.319,10.985-6.666l2.92-0.961l-1.795,2.493c-1.97,2.738-3.635,5.633-4.953,8.63
			l-0.379,0.848l-0.872-0.314c-1.882-0.669-3.781-1.486-5.656-2.42l-1.253-0.633L11.037,10.489z M2.433,28.831
			C2.854,23.456,4.757,18.328,7.955,14l0.503-0.691l0.762,0.394c2.248,1.182,4.549,2.192,6.833,3.004l0.917,0.331l-0.305,0.923
			c-1.176,3.597-1.842,7.294-1.987,10.986l-0.037,0.955H2.351L2.433,28.831z M8.5,48.9l-0.51-0.688
			c-3.207-4.319-5.13-9.455-5.556-14.854l-0.082-1.075h12.33l0.063,0.925c0.258,3.615,1.039,7.279,2.313,10.902l0.332,0.943
			l-0.953,0.33c-2.397,0.832-4.813,1.887-7.182,3.123L8.5,48.9z M22.752,58.571c-4.361-1.309-8.401-3.676-11.675-6.852l-1.013-0.981
			l1.265-0.629c1.992-0.995,4.045-1.857,6.101-2.569l0.854-0.291l0.379,0.822c1.375,3,3.122,6.02,5.191,8.969l1.653,2.355
			L22.752,58.571z M29.788,59.956c-0.271-0.016-0.533-0.029-0.791-0.051l-0.994-1.268c-2.834-3.607-5.16-7.291-6.909-10.949
			l-0.535-1.115l1.206-0.285c2.34-0.561,4.682-0.92,6.958-1.07l1.065-0.072V59.956z M29.788,42.868l-0.943,0.052
			c-2.756,0.147-5.553,0.569-8.313,1.255l-0.875,0.215l-0.306-0.842c-1.23-3.383-2.006-6.811-2.301-10.179l-0.096-1.086h12.833
			V42.868z M29.788,29.902H16.896l0.035-1.03c0.124-3.455,0.751-6.917,1.854-10.289l0.297-0.891l0.91,0.237
			c2.927,0.763,5.911,1.231,8.852,1.391l0.943,0.047V29.902z M29.788,17.079l-1.065-0.068c-2.513-0.17-5.081-0.58-7.629-1.229
			l-1.164-0.293l0.5-1.093c2.551-5.573,5.874-9.547,7.629-11.418l0.686-0.727c0.306-0.02,0.656-0.043,1.043-0.054V17.079z
			 M68.223,46.454c0.584-0.681,0.953-1.555,0.953-2.527c0-3.052-1.83-4.885-4.883-4.885V35.38c0-0.132-0.113-0.244-0.246-0.244
			H62.58c-0.129,0-0.24,0.106-0.24,0.236v3.67h-1.951l-0.006-3.662c0-0.132-0.109-0.244-0.244-0.244h-1.463
			c-0.135,0-0.236,0.106-0.242,0.236v3.67l-4.152,0.004c-0.139,0-0.246,0.112-0.246,0.244v1.463
			c0.006,0.134,0.115,0.246,0.246,0.246h0.24c1.078,0,1.955,0.875,1.955,1.952v7.813c0,1.02-0.777,1.861-1.779,1.949
			c-0.102,0.006-0.184,0.079-0.215,0.18l-0.367,1.475c-0.018,0.072,0,0.146,0.043,0.206s0.115,0.097,0.191,0.097h4.084v3.67
			c0.006,0.131,0.107,0.232,0.242,0.232h1.463c0.135,0,0.244-0.107,0.244-0.239l0.006-3.663h1.951v3.67
			c0,0.131,0.111,0.232,0.24,0.232h1.467c0.133,0,0.246-0.107,0.246-0.239v-3.663h0.971c3.055,0,4.887-1.833,4.887-4.882
			C70.15,48.36,69.373,47.13,68.223,46.454z M60.383,41.978h2.934c1.076,0,1.947,0.871,1.947,1.949c0,1.081-0.871,1.953-1.947,1.953
			h-2.934V41.978z M64.293,51.741h-3.91v-3.904h3.91c1.074,0,1.951,0.871,1.951,1.952C66.244,50.866,65.367,51.741,64.293,51.741z"
			/>
	</g>
</g>
</svg>
