<?xml version="1.0" encoding="utf-8"?>
<!-- Generator: Adobe Illustrator 16.0.0, SVG Export Plug-In . SVG Version: 6.00 Build 0)  -->
<!DOCTYPE svg PUBLIC "-//W3C//DTD SVG 1.1//EN" "http://www.w3.org/Graphics/SVG/1.1/DTD/svg11.dtd">
<svg version="1.1" id="Слой_1" xmlns="http://www.w3.org/2000/svg" xmlns:xlink="http://www.w3.org/1999/xlink" x="0px" y="0px"
	 width="76.58px" height="73.06px" viewBox="0 0 76.58 73.06" enable-background="new 0 0 76.58 73.06" xml:space="preserve">
<g>
	<g>
		<path fill="#00BBC5" d="M12.457,9.976c-1.014,0-1.84,0.833-1.84,1.846c0,1.02,0.826,1.851,1.84,1.851
			c1.016,0,1.843-0.832,1.843-1.851C14.3,10.809,13.472,9.976,12.457,9.976z M22.363,9.976c-1.02,0-1.85,0.833-1.85,1.846
			c0,1.02,0.831,1.851,1.85,1.851c1.019,0,1.841-0.832,1.841-1.851C24.204,10.809,23.382,9.976,22.363,9.976z M10.616,33.161
			c0,1.024,0.826,1.854,1.84,1.854c1.016,0,1.843-0.829,1.843-1.854c0-1.017-0.828-1.846-1.843-1.846
			C11.442,31.315,10.616,32.145,10.616,33.161z M20.513,33.161c0,1.024,0.831,1.854,1.85,1.854c1.019,0,1.841-0.829,1.841-1.854
			c0-1.017-0.822-1.846-1.841-1.846C21.343,31.315,20.513,32.145,20.513,33.161z M10.616,54.545c0,1.018,0.826,1.85,1.84,1.85
			c1.016,0,1.843-0.832,1.843-1.85c0-1.02-0.828-1.85-1.843-1.85C11.442,52.695,10.616,53.525,10.616,54.545z M20.513,54.545
			c0,1.018,0.831,1.85,1.85,1.85c1.019,0,1.841-0.832,1.841-1.85c0-1.02-0.822-1.85-1.841-1.85
			C21.343,52.695,20.513,53.525,20.513,54.545z M36.421,42.711h-34v-18.92h54.747v6.064c0.338-0.011,0.689-0.028,1.049-0.028
			c0.455,0,0.914,0.018,1.377,0.043V7.935c0-4.357-3.541-7.902-7.895-7.902H7.896c-4.352,0-7.896,3.544-7.896,7.902v50.632
			c0,4.354,3.545,7.895,7.896,7.895h28.379c-0.412-0.779-0.793-1.592-1.129-2.418H7.896c-3.02,0-5.475-2.453-5.475-5.477V45.135
			h32.834C35.608,44.299,35.999,43.488,36.421,42.711z M2.421,7.935c0-3.023,2.455-5.476,5.475-5.476h43.804
			c3.018,0,5.469,2.452,5.469,5.476v13.438H2.421V7.935z M58.217,36.373c-10.127,0-18.369,8.227-18.369,18.354
			c0,10.123,8.242,18.363,18.369,18.363c10.133,0,18.365-8.24,18.365-18.363C76.582,44.6,68.35,36.373,58.217,36.373z
			 M58.217,70.668c-8.797,0-15.951-7.152-15.951-15.941c0-8.785,7.154-15.936,15.951-15.936c8.793,0,15.939,7.15,15.939,15.936
			C74.156,63.516,67.01,70.668,58.217,70.668z M63.824,54.174c0.539-0.621,0.869-1.422,0.869-2.309c0-2.797-1.674-4.475-4.465-4.475
			v-3.354c0-0.117-0.104-0.225-0.232-0.225h-1.334c-0.125,0-0.213,0.098-0.223,0.219v3.359h-1.785l-0.008-3.354
			c0-0.117-0.092-0.225-0.223-0.225h-1.34c-0.121,0-0.211,0.098-0.217,0.219v3.359h-3.803c-0.129,0-0.229,0.104-0.229,0.229v1.336
			c0.004,0.123,0.105,0.227,0.229,0.227h0.223c0.984,0,1.787,0.803,1.787,1.789v7.154c0,0.926-0.715,1.695-1.629,1.771
			c-0.1,0.014-0.17,0.082-0.201,0.174l-0.336,1.346c-0.014,0.072,0,0.139,0.037,0.193c0.049,0.055,0.109,0.088,0.186,0.088h3.736
			v3.361c0.006,0.117,0.096,0.215,0.217,0.215h1.34c0.131,0,0.223-0.1,0.223-0.225l0.008-3.352h1.785v3.361
			c0.01,0.117,0.098,0.215,0.223,0.215h1.334c0.129,0,0.232-0.1,0.232-0.225v-3.352h0.889c2.797,0,4.475-1.68,4.475-4.469
			C65.592,55.92,64.879,54.795,63.824,54.174z M56.646,50.076h2.691c0.979,0,1.779,0.799,1.779,1.789
			c0,0.986-0.801,1.781-1.779,1.781h-2.691V50.076z M60.229,59.016h-3.582v-3.574h3.582c0.984,0,1.787,0.799,1.787,1.787
			C62.016,58.213,61.213,59.016,60.229,59.016z"/>
	</g>
</g>
</svg>
