<?xml version="1.0" encoding="utf-8"?>
<!-- Generator: Adobe Illustrator 16.0.0, SVG Export Plug-In . SVG Version: 6.00 Build 0)  -->
<!DOCTYPE svg PUBLIC "-//W3C//DTD SVG 1.1//EN" "http://www.w3.org/Graphics/SVG/1.1/DTD/svg11.dtd">
<svg version="1.1" id="Слой_1" xmlns="http://www.w3.org/2000/svg" xmlns:xlink="http://www.w3.org/1999/xlink" x="0px" y="0px"
	 width="64px" height="51.5px" viewBox="0 0 64 51.5" enable-background="new 0 0 64 51.5" xml:space="preserve">
<g>
	<g>
		<g>
			<path fill="#FFFFFF" d="M59.004,9.953c2.71,0,4.918-2.205,4.918-4.916c0-2.71-2.208-4.915-4.918-4.915H43.617
				c-1.772,0-3.521,0.239-5.22,0.71c0.545,0.274,1.073,0.57,1.587,0.889c0.164,0.1,0.322,0.21,0.482,0.313
				c0.348,0.227,0.696,0.462,1.026,0.708c0.184,0.136,0.359,0.274,0.539,0.415c0.301,0.239,0.598,0.482,0.885,0.739
				c0.173,0.152,0.343,0.306,0.515,0.466c0.283,0.268,0.559,0.546,0.83,0.831c0.146,0.16,0.297,0.313,0.443,0.475
				c0.308,0.345,0.597,0.703,0.882,1.066c0.092,0.115,0.186,0.224,0.271,0.336c0.365,0.488,0.707,0.991,1.027,1.513
				c0.08,0.124,0.147,0.257,0.222,0.385c0.191,0.323,0.389,0.646,0.563,0.985H59.004z"/>
			<path fill="#FFFFFF" d="M35.686,25.234l-0.307-0.436l0.01-0.019c-1.938-3.088-1.962-7.129-0.02-10.228
				c-1.483-1.854-3.759-3.01-6.139-3.084c-1.114-0.037-2.229-0.005-3.343-0.005c-3.523,7.641-1.682,16.902,4.541,22.594
				c3.297,3.018,7.612,4.847,12.079,5.095c1.478,0.088,2.969,0.033,4.449,0.035c4.013,0,8.03,0,12.048,0
				c2.675-0.002,4.918-2.241,4.918-4.914c0-2.675-2.243-4.917-4.918-4.916c-3.49,0-6.982,0-10.475,0c-1.316,0-2.63,0-3.945,0
				c-3.165,0-6.077-0.85-8.24-3.302l-0.039,0.055L35.686,25.234z"/>
			<path fill="#07B6BF" d="M18.899,29.356c-5.331,0-8.919-4.321-8.952-9.644v-0.065c0.003-3.434,1.885-6.672,4.854-8.394
				c2.437-1.413,4.996-1.288,7.701-1.295c1.534-0.014,3.07-0.006,4.605-0.006c1.256-0.004,2.526-0.063,3.767,0.188
				c1.921,0.383,3.707,1.36,5.067,2.767c0.113,0.112,0.219,0.228,0.324,0.349l0.039-0.056c0.307,0.437,0.619,0.873,0.925,1.313
				l-0.014,0.014c1.94,3.092,1.968,7.134,0.021,10.23c1.486,1.854,3.764,3.007,6.14,3.085c1.115,0.035,2.237,0.005,3.353,0.005
				c3.752-8.066,1.392-17.915-5.549-23.453c-3.443-2.749-7.789-4.272-12.193-4.272c-1.706,0-3.411,0-5.117,0
				c-1.658,0-3.315,0-4.971,0c-10.779,0-18.79,8.761-18.79,19.53v26.843c0,2.673,2.242,4.914,4.918,4.914
				c2.677,0,4.919-2.241,4.919-4.914v-9.854c2.445,1.206,4.876,2.294,7.637,2.497c1.454,0.107,2.931,0.049,4.386,0.049
				c4.025,0,8.328,0.377,12.242-0.711c-3.938-1.97-7.242-5.22-9.273-9.119H18.899z"/>
		</g>
	</g>
</g>
</svg>
