<?xml version="1.0" encoding="utf-8"?>
<!-- Generator: Adobe Illustrator 16.0.0, SVG Export Plug-In . SVG Version: 6.00 Build 0)  -->
<!DOCTYPE svg PUBLIC "-//W3C//DTD SVG 1.1//EN" "http://www.w3.org/Graphics/SVG/1.1/DTD/svg11.dtd">
<svg version="1.1" id="Слой_1" xmlns="http://www.w3.org/2000/svg" xmlns:xlink="http://www.w3.org/1999/xlink" x="0px" y="0px"
	 width="208.25px" height="49.93px" viewBox="0 0 208.25 49.93" enable-background="new 0 0 208.25 49.93" xml:space="preserve">
<g>
	<text transform="matrix(1.0034 0 0 1 134.2227 38.9336)" fill="#325070" font-family="'ProximaNova-Regular'" font-size="7.8329">POWERED BY CEX.IO</text>
	<g>
		<g>
			<g>
				<path fill="#325070" d="M50.845,14.281c2.331,0,4.226-1.89,4.226-4.213c0-2.322-1.895-4.211-4.226-4.211H37.628
					c-1.526,0-3.028,0.205-4.488,0.609c0.469,0.234,0.921,0.487,1.364,0.761c0.142,0.086,0.278,0.181,0.416,0.269
					c0.299,0.194,0.596,0.396,0.881,0.605c0.159,0.119,0.309,0.236,0.464,0.357c0.257,0.205,0.513,0.414,0.759,0.633
					c0.149,0.129,0.295,0.261,0.442,0.398c0.246,0.231,0.48,0.468,0.712,0.712c0.128,0.137,0.257,0.267,0.383,0.407
					c0.264,0.295,0.515,0.604,0.759,0.915c0.076,0.098,0.157,0.19,0.232,0.289c0.313,0.417,0.606,0.848,0.883,1.294
					c0.067,0.106,0.125,0.222,0.19,0.331c0.164,0.276,0.333,0.554,0.483,0.844H50.845z"/>
				<path fill="#325070" d="M30.812,27.373l-0.264-0.372l0.008-0.017c-1.665-2.646-1.684-6.108-0.016-8.765
					c-1.276-1.588-3.23-2.579-5.273-2.642c-0.957-0.032-1.917-0.005-2.873-0.005c-3.028,6.548-1.446,14.485,3.9,19.361
					c2.833,2.587,6.541,4.153,10.378,4.366c1.268,0.075,2.551,0.027,3.823,0.029c3.447,0,6.899,0,10.349,0
					c2.3-0.002,4.226-1.919,4.226-4.211c0-2.291-1.926-4.212-4.226-4.211c-3,0-5.999,0-8.998,0c-1.13,0-2.26,0-3.391,0
					c-2.718,0-5.221-0.729-7.079-2.829l-0.034,0.046L30.812,27.373z"/>
			</g>
			<path fill="#08B4BD" d="M16.39,30.907c-4.582,0-7.663-3.702-7.692-8.264v-0.056c0.003-2.942,1.62-5.717,4.172-7.191
				c2.091-1.214,4.292-1.106,6.615-1.112c1.318-0.011,2.639-0.004,3.957-0.004c1.08-0.003,2.17-0.055,3.237,0.158
				c1.65,0.33,3.183,1.167,4.354,2.372c0.095,0.096,0.186,0.196,0.277,0.297l0.033-0.045c0.265,0.373,0.531,0.748,0.794,1.124
				l-0.008,0.013c1.665,2.649,1.689,6.112,0.016,8.767c1.274,1.588,3.232,2.577,5.276,2.644c0.957,0.029,1.921,0.003,2.877,0.003
				c3.225-6.91,1.196-15.351-4.767-20.096c-2.958-2.355-6.691-3.661-10.477-3.661c-1.464,0-2.929,0-4.395,0
				c-1.424,0-2.849,0-4.271,0c-9.261,0-16.145,7.507-16.145,16.734v23c0,2.294,1.927,4.214,4.226,4.214
				c2.302,0,4.227-1.92,4.227-4.214v-8.441c2.102,1.034,4.191,1.967,6.562,2.139c1.249,0.092,2.518,0.041,3.77,0.041
				c3.458,0,7.156,0.325,10.516-0.607c-3.382-1.688-6.223-4.472-7.967-7.814H16.39z"/>
		</g>
		<g>
			<path fill="#08B4BD" d="M72.481,39.931c0,0.484-0.243,0.772-0.977,0.772h-3.259c-0.405,0-0.772-0.369-0.772-0.772V13.065
				c0-0.449,0.367-0.771,0.772-0.771h1.591c0.283,0,0.569,0.164,0.691,0.488l0.528,1.337c0.612-0.81,2.607-2.229,5.254-2.229
				c4.479,0,7.858,3.855,7.858,8.52c0,4.79-3.664,8.524-8.063,8.524c-1.587,0-3.051-0.568-3.624-0.893V39.931z M75.454,24.55
				c2.279,0,3.948-1.868,3.948-4.142c0-2.272-1.547-4.137-3.784-4.137c-2.077,0-3.096,1.623-3.341,2.473v4.872
				C72.277,23.616,73.418,24.55,75.454,24.55"/>
			<path fill="#08B4BD" d="M86.656,0.893c0-0.408,0.369-0.772,0.773-0.772h3.42c0.411,0,0.774,0.364,0.774,0.772v26.864
				c0,0.403-0.363,0.771-0.774,0.771h-3.42c-0.404,0-0.773-0.368-0.773-0.771V0.893z"/>
			<path fill="#08B4BD" d="M94.916,13.065c0-0.449,0.363-0.771,0.775-0.771h3.335c0.408,0,0.775,0.323,0.775,0.771v7.995
				c0,2.15,1.099,3.49,2.972,3.49c1.711,0,3.012-1.584,3.258-3.043v-8.442c0-0.607,0.243-0.771,0.896-0.771h3.093
				c0.408,0,0.774,0.323,0.774,0.771v14.692c0,0.403-0.366,0.77-0.774,0.77h-1.505c-0.408,0-0.653-0.285-0.773-0.61l-0.489-1.337
				c-0.734,0.646-2.24,2.352-5.459,2.352c-5.046,0-6.878-3.853-6.878-7.993V13.065z"/>
			<path fill="#08B4BD" d="M115.814,22.764c0,0-1.221-1.378-1.221-3.813c0-3.776,3.056-7.063,7.087-7.063h7.411
				c0.445,0,0.772,0.326,0.772,0.771v1.337c0,0.286-0.161,0.61-0.449,0.69l-2.28,0.733c0,0,1.631,1.258,1.631,4.139
				c0,3.206-2.689,6.372-6.963,6.372c-1.551,0-2.606-0.325-3.26-0.325c-0.569,0-1.505,0.568-1.505,1.542
				c0,0.854,0.732,1.382,1.627,1.382h5.212c3.706,0,6.722,2.109,6.722,5.679c0,3.735-3.016,6.897-8.918,6.897
				c-6.027,0-8.309-2.96-8.309-5.559c0-2.433,2.035-3.61,2.442-3.854v-0.123c-0.689-0.201-3.051-1.298-3.051-4.262
				C112.764,24.142,115.814,22.764,115.814,22.764 M121.64,37.047c2.28,0,3.784-1.013,3.784-2.554c0-0.73-0.567-1.989-2.969-1.989
				c-0.896,0-1.792,0.039-2.648,0.159c-0.491,0.167-1.751,0.733-1.751,1.991C118.056,36.076,119.44,37.047,121.64,37.047
				 M121.803,22.072c1.668,0,2.809-1.216,2.809-2.921c0-1.704-1.141-2.921-2.809-2.921c-1.629,0-2.853,1.218-2.853,2.921
				C118.95,20.856,120.174,22.072,121.803,22.072"/>
			<g>
				<path fill="#325070" d="M139.781,11.889c2.522,0,4.479,1.013,6.025,2.882c0.287,0.365,0.204,0.85-0.201,1.135l-1.874,1.785
					c-0.366,0.324-0.732,0.122-1.019-0.12c-0.649-0.734-1.67-1.3-2.81-1.3c-2.2,0-3.989,1.866-3.989,4.137
					c0,2.315,1.75,4.142,3.949,4.142c1.75,0,2.524-0.854,3.257-1.544c0.284-0.283,0.694-0.363,1.018-0.121l1.751,1.502
					c0.407,0.324,0.571,0.73,0.284,1.135c-1.384,2.152-3.541,3.41-6.433,3.41c-4.602,0-8.635-3.652-8.635-8.524
					C131.105,15.621,135.219,11.889,139.781,11.889"/>
				<path fill="#325070" d="M147.716,0.893c0-0.408,0.367-0.772,0.774-0.772h3.461c0.406,0,0.771,0.364,0.771,0.772v12.334
					c0.815-0.609,2.403-1.338,4.318-1.338c5.171,0,7.291,3.976,7.291,8.075v7.793c0,0.403-0.368,0.771-0.777,0.771h-3.296
					c-0.448,0-0.775-0.368-0.775-0.771v-7.833c0-2.233-1.26-3.654-3.217-3.654c-1.872,0-3.134,1.218-3.544,2.881v8.606
					c0,0.446-0.241,0.771-0.852,0.771h-3.381c-0.407,0-0.774-0.368-0.774-0.771V0.893z"/>
				<path fill="#325070" d="M172.427,18.261c1.63,0,2.974,0.447,2.974,0.447c0.041-2.072-0.609-2.801-2.117-2.801
					s-3.626,0.323-4.559,0.607c-0.573,0.164-0.855-0.202-0.938-0.729l-0.367-2.112c-0.12-0.608,0.204-0.892,0.571-1.014
					c0.324-0.124,2.931-0.771,5.537-0.771c5.089,0,6.269,2.638,6.269,7.063v8.806c0,0.403-0.363,0.771-0.771,0.771h-1.467
					c-0.286,0-0.491-0.122-0.692-0.571l-0.49-1.095c-0.935,0.851-2.442,2.07-4.967,2.07c-3.258,0-5.497-2.108-5.497-5.562
					C165.912,20.492,168.276,18.261,172.427,18.261 M172.508,25.481c1.304,0,2.566-1.094,2.813-1.581v-2.234
					c0,0-1.102-0.487-2.282-0.487c-1.587,0-2.648,0.894-2.648,2.192C170.391,24.591,171.247,25.481,172.508,25.481"/>
				<path fill="#325070" d="M182.794,14.206c0-1.545,1.22-2.804,2.77-2.804c1.588,0,2.854,1.259,2.854,2.804
					c0,1.542-1.266,2.795-2.854,2.795C184.014,17.001,182.794,15.748,182.794,14.206 M183.162,20.363
					c0-0.447,0.363-0.769,0.771-0.769h3.379c0.409,0,0.773,0.322,0.773,0.769v7.709c0,0.406-0.364,0.771-0.773,0.771h-3.379
					c-0.408,0-0.771-0.365-0.771-0.771V20.363z"/>
				<path fill="#325070" d="M191.588,13.065c0-0.449,0.365-0.771,0.771-0.771h1.546c0.371,0,0.575,0.204,0.696,0.488l0.567,1.501
					c0.612-0.648,2.606-2.394,5.743-2.394c5.171,0,7.249,3.855,7.249,8.075v7.793c0,0.403-0.366,0.77-0.777,0.77h-3.336
					c-0.448,0-0.775-0.366-0.775-0.77v-8.038c0-2.108-1.099-3.448-3.055-3.448c-2.114,0-3.417,1.461-3.824,2.557v8.929
					c0,0.567-0.244,0.77-1.02,0.77h-3.015c-0.405,0-0.771-0.366-0.771-0.77V13.065z"/>
			</g>
		</g>
	</g>
</g>
</svg>
