<?xml version="1.0" encoding="utf-8"?>
<!-- Generator: Adobe Illustrator 16.0.0, SVG Export Plug-In . SVG Version: 6.00 Build 0)  -->
<!DOCTYPE svg PUBLIC "-//W3C//DTD SVG 1.1//EN" "http://www.w3.org/Graphics/SVG/1.1/DTD/svg11.dtd">
<svg version="1.1" id="Слой_1" xmlns="http://www.w3.org/2000/svg" xmlns:xlink="http://www.w3.org/1999/xlink" x="0px" y="0px"
	 width="423.13px" height="101.46px" viewBox="0 0 423.13 101.46" enable-background="new 0 0 423.13 101.46" xml:space="preserve">
<g>
	<g>
		<path fill="#FFFFFF" d="M102.977,28.92c4.74,0,8.6-3.859,8.6-8.603c0-4.743-3.86-8.603-8.6-8.603H76.076
			c-3.104,0-6.163,0.421-9.13,1.247c0.954,0.479,1.876,0.996,2.774,1.554c0.287,0.175,0.564,0.368,0.848,0.547
			c0.604,0.398,1.212,0.808,1.793,1.239c0.32,0.24,0.627,0.479,0.942,0.728c0.524,0.416,1.043,0.843,1.544,1.291
			c0.307,0.266,0.603,0.537,0.902,0.814c0.499,0.471,0.977,0.959,1.449,1.455c0.26,0.279,0.521,0.547,0.777,0.83
			c0.538,0.604,1.045,1.231,1.543,1.867c0.157,0.201,0.323,0.393,0.475,0.59c0.639,0.852,1.233,1.732,1.797,2.643
			c0.139,0.218,0.257,0.452,0.387,0.676c0.332,0.564,0.678,1.131,0.983,1.723H102.977z"/>
		<path fill="#FFFFFF" d="M62.206,55.657l-0.539-0.762l0.017-0.033c-3.388-5.405-3.426-12.476-0.032-17.897
			c-2.596-3.244-6.574-5.266-10.732-5.397c-1.945-0.064-3.9-0.01-5.846-0.01c-6.163,13.37-2.943,29.578,7.939,39.535
			c5.764,5.283,13.31,8.479,21.117,8.917c2.582,0.153,5.194,0.057,7.782,0.059c7.017,0,14.04,0,21.064,0
			c4.679-0.002,8.6-3.919,8.6-8.598s-3.921-8.601-8.6-8.601c-6.103,0-12.21,0-18.313,0c-2.303,0-4.599,0-6.9,0
			c-5.535,0-10.626-1.488-14.408-5.776l-0.071,0.092L62.206,55.657z"/>
		<path fill="#66ADB6" d="M32.853,62.87c-9.32,0-15.593-7.561-15.651-16.875v-0.115c0.005-6.006,3.294-11.675,8.489-14.686
			c4.258-2.472,8.732-2.254,13.463-2.27c2.682-0.021,5.369-0.006,8.053-0.006c2.197-0.007,4.417-0.113,6.586,0.326
			c3.359,0.673,6.479,2.383,8.861,4.842c0.196,0.196,0.381,0.399,0.566,0.609l0.065-0.098c0.538,0.766,1.082,1.528,1.622,2.297
			l-0.022,0.025c3.39,5.413,3.438,12.481,0.037,17.901c2.593,3.242,6.576,5.26,10.733,5.396c1.95,0.061,3.913,0.007,5.858,0.007
			c6.56-14.111,2.434-31.348-9.703-41.036c-6.02-4.808-13.617-7.476-21.318-7.476c-2.982,0-5.961,0-8.944,0c-2.9,0-5.798,0-8.694,0
			C14.008,11.714,0,27.047,0,45.888v46.969c0,4.683,3.919,8.601,8.6,8.601c4.683,0,8.602-3.918,8.602-8.601V75.615
			c4.275,2.11,8.528,4.019,13.354,4.37c2.539,0.186,5.124,0.083,7.67,0.083c7.037,0,14.559,0.662,21.402-1.241
			c-6.884-3.445-12.663-9.133-16.215-15.957H32.853z"/>
	</g>
	<g>
		<path fill="#66ADB6" d="M147.007,81.296c0,0.993-0.496,1.578-1.986,1.578h-6.633c-0.828,0-1.575-0.753-1.575-1.578v-54.86
			c0-0.915,0.747-1.575,1.575-1.575h3.237c0.573,0,1.159,0.334,1.405,0.995l1.075,2.734c1.246-1.658,5.305-4.557,10.691-4.557
			c9.114,0,15.995,7.875,15.995,17.402c0,9.78-7.457,17.401-16.409,17.401c-3.229,0-6.209-1.159-7.375-1.823V81.296z
			 M153.058,49.889c4.639,0,8.033-3.814,8.033-8.454c0-4.643-3.146-8.451-7.701-8.451c-4.229,0-6.298,3.314-6.798,5.051v9.95
			C146.592,47.985,148.913,49.889,153.058,49.889"/>
		<path fill="#66ADB6" d="M175.853,1.581c0-0.833,0.749-1.579,1.577-1.579h6.96c0.832,0,1.574,0.746,1.574,1.579v54.857
			c0,0.822-0.742,1.574-1.574,1.574h-6.96c-0.828,0-1.577-0.752-1.577-1.574V1.581z"/>
		<path fill="#66ADB6" d="M192.661,26.436c0-0.915,0.744-1.575,1.58-1.575h6.79c0.828,0,1.576,0.66,1.576,1.575v16.328
			c0,4.391,2.236,7.125,6.047,7.125c3.482,0,6.13-3.233,6.636-6.211V26.436c0-1.241,0.494-1.575,1.814-1.575h6.301
			c0.832,0,1.576,0.66,1.576,1.575v30.002c0,0.822-0.744,1.571-1.576,1.571h-3.061c-0.832,0-1.328-0.583-1.576-1.243l-0.996-2.732
			c-1.498,1.32-4.562,4.803-11.11,4.803c-10.266,0-14-7.868-14-16.324V26.436z"/>
		<path fill="#66ADB6" d="M235.197,46.242c0,0-2.482-2.814-2.482-7.787c0-7.708,6.217-14.421,14.416-14.421h15.084
			c0.912,0,1.578,0.668,1.578,1.576v2.73c0,0.583-0.334,1.244-0.918,1.41l-4.641,1.495c0,0,3.316,2.568,3.316,8.45
			c0,6.547-5.471,13.012-14.168,13.012c-3.154,0-5.303-0.664-6.637-0.664c-1.156,0-3.061,1.158-3.061,3.149
			c0,1.743,1.49,2.82,3.311,2.82h10.607c7.545,0,13.678,4.307,13.678,11.598c0,7.625-6.133,14.086-18.15,14.086
			c-12.264,0-16.906-6.049-16.906-11.354c0-4.969,4.145-7.374,4.973-7.867v-0.252c-1.408-0.413-6.209-2.65-6.209-8.701
			C228.988,49.059,235.197,46.242,235.197,46.242 M247.047,75.407c4.645,0,7.705-2.068,7.705-5.215c0-1.492-1.156-4.061-6.043-4.061
			c-1.824,0-3.646,0.079-5.393,0.326c-0.996,0.338-3.559,1.493-3.559,4.063C239.758,73.422,242.574,75.407,247.047,75.407
			 M247.383,44.83c3.395,0,5.719-2.482,5.719-5.963c0-3.481-2.324-5.967-5.719-5.967c-3.316,0-5.805,2.485-5.805,5.967
			C241.578,42.348,244.066,44.83,247.383,44.83"/>
		<path fill="#FFFFFF" d="M283.973,24.034c5.133,0,9.113,2.07,12.26,5.885c0.586,0.748,0.418,1.739-0.408,2.32l-3.813,3.645
			c-0.75,0.663-1.492,0.249-2.074-0.246c-1.32-1.493-3.398-2.653-5.719-2.653c-4.473,0-8.113,3.811-8.113,8.451
			c0,4.725,3.555,8.454,8.031,8.454c3.561,0,5.137-1.744,6.631-3.152c0.58-0.577,1.41-0.742,2.07-0.249l3.561,3.071
			c0.83,0.662,1.162,1.488,0.58,2.315c-2.814,4.396-7.207,6.963-13.092,6.963c-9.363,0-17.57-7.454-17.57-17.401
			C266.316,31.657,274.688,24.034,283.973,24.034"/>
		<path fill="#FFFFFF" d="M300.119,1.581c0-0.833,0.746-1.579,1.576-1.579h7.041c0.83,0,1.574,0.746,1.574,1.579v25.187
			c1.658-1.243,4.889-2.734,8.785-2.734c10.523,0,14.834,8.122,14.834,16.492v15.913c0,0.822-0.744,1.574-1.576,1.574h-6.711
			c-0.912,0-1.576-0.752-1.576-1.574V40.441c0-4.559-2.564-7.458-6.545-7.458c-3.813,0-6.381,2.486-7.211,5.885v17.571
			c0,0.91-0.494,1.574-1.738,1.574h-6.877c-0.83,0-1.576-0.752-1.576-1.574V1.581z"/>
		<path fill="#FFFFFF" d="M350.406,37.046c3.32,0,6.055,0.911,6.055,0.911c0.08-4.229-1.24-5.719-4.311-5.719
			c-3.068,0-7.375,0.662-9.275,1.242c-1.166,0.333-1.742-0.417-1.908-1.492l-0.748-4.31c-0.246-1.244,0.412-1.823,1.158-2.07
			c0.66-0.25,5.967-1.576,11.271-1.576c10.357,0,12.76,5.388,12.76,14.421v17.983c0,0.822-0.742,1.574-1.572,1.574h-2.984
			c-0.58,0-1-0.25-1.406-1.165l-1-2.236c-1.904,1.739-4.973,4.226-10.105,4.226c-6.631,0-11.188-4.308-11.188-11.352
			C337.152,41.603,341.963,37.046,350.406,37.046 M350.572,51.793c2.656,0,5.225-2.234,5.725-3.23v-4.559
			c0,0-2.238-0.998-4.643-0.998c-3.23,0-5.385,1.824-5.385,4.479C346.27,49.973,348.008,51.793,350.572,51.793"/>
		<path fill="#FFFFFF" d="M371.504,28.766c0-3.154,2.488-5.72,5.637-5.72c3.234,0,5.807,2.566,5.807,5.72
			c0,3.149-2.572,5.711-5.807,5.711C373.992,34.477,371.504,31.915,371.504,28.766 M372.254,41.341c0-0.912,0.742-1.571,1.574-1.571
			h6.875c0.834,0,1.576,0.66,1.576,1.571v15.742c0,0.828-0.742,1.574-1.576,1.574h-6.875c-0.832,0-1.574-0.746-1.574-1.574V41.341z"
			/>
		<path fill="#FFFFFF" d="M389.4,26.436c0-0.915,0.748-1.575,1.572-1.575h3.145c0.756,0,1.172,0.418,1.416,0.995l1.156,3.066
			c1.246-1.326,5.305-4.889,11.686-4.889c10.525,0,14.754,7.875,14.754,16.492v15.913c0,0.822-0.742,1.571-1.578,1.571h-6.791
			c-0.914,0-1.574-0.749-1.574-1.571V40.026c0-4.307-2.244-7.042-6.217-7.042c-4.311,0-6.957,2.982-7.789,5.222v18.232
			c0,1.158-0.498,1.571-2.074,1.571h-6.133c-0.824,0-1.572-0.749-1.572-1.571V26.436z"/>
	</g>
</g>
</svg>
