<?xml version="1.0" encoding="utf-8"?>
<!-- Generator: Adobe Illustrator 16.0.0, SVG Export Plug-In . SVG Version: 6.00 Build 0)  -->
<!DOCTYPE svg PUBLIC "-//W3C//DTD SVG 1.1//EN" "http://www.w3.org/Graphics/SVG/1.1/DTD/svg11.dtd">
<svg version="1.1" id="Слой_1" xmlns="http://www.w3.org/2000/svg" xmlns:xlink="http://www.w3.org/1999/xlink" x="0px" y="0px"
	 width="43px" height="44px" viewBox="0 0 43 44" enable-background="new 0 0 43 44" xml:space="preserve">
<g>
	<path fill="#00BBC5" d="M9.707,12.38c-0.668,0-1.212,0.549-1.212,1.222c0,0.676,0.544,1.225,1.212,1.225
		c1.478,0,2.799,0.832,3.446,2.179c0.209,0.433,0.639,0.684,1.087,0.684c0.18,0,0.36-0.039,0.529-0.123
		c0.603-0.294,0.854-1.027,0.559-1.634C14.271,13.741,12.116,12.38,9.707,12.38z"/>
	<path fill="#00BBC5" d="M27.166,33.669L18.688,25.1c1.194-1.698,1.902-3.766,1.902-6.001c0-5.732-4.609-10.396-10.282-10.396
		c-5.671,0-10.282,4.664-10.282,10.396c0,5.73,4.611,10.393,10.282,10.393c2.369,0,4.547-0.821,6.288-2.188l8.432,8.528
		c0.296,0.296,0.683,0.444,1.072,0.444c0.388,0,0.771-0.146,1.066-0.444C27.757,35.233,27.757,34.267,27.166,33.669z M2.447,19.099
		c0-4.384,3.528-7.947,7.861-7.947c4.336,0,7.863,3.563,7.863,7.947c0,1.821-0.614,3.5-1.641,4.845
		c-0.339,0.44-0.721,0.852-1.145,1.212c-1.369,1.177-3.141,1.89-5.078,1.89C5.974,27.045,2.447,23.479,2.447,19.099z"/>
</g>
<line fill="none" stroke="#00BBC5" stroke-miterlimit="10" x1="42.527" y1="0.007" x2="42.527" y2="44.027"/>
</svg>
