<?xml version="1.0" encoding="utf-8"?>
<!-- Generator: Adobe Illustrator 16.0.0, SVG Export Plug-In . SVG Version: 6.00 Build 0)  -->
<!DOCTYPE svg PUBLIC "-//W3C//DTD SVG 1.1//EN" "http://www.w3.org/Graphics/SVG/1.1/DTD/svg11.dtd">
<svg version="1.1" id="Слой_1" xmlns="http://www.w3.org/2000/svg" xmlns:xlink="http://www.w3.org/1999/xlink" x="0px" y="0px"
	 width="72.66px" height="73.23px" viewBox="0 0 72.66 73.23" enable-background="new 0 0 72.66 73.23" xml:space="preserve">
<g>
	<g>
		<path fill="#00BBC5" d="M47.479,7.772c2.566,0,4.65,2.082,4.65,4.645v10.799l-4.73-4.732c-0.207-0.208-0.482-0.319-0.775-0.319
			c-0.287,0-0.564,0.111-0.773,0.319c-0.424,0.423-0.424,1.115,0,1.539l6.449,6.44c0.203,0.208,0.471,0.319,0.766,0.319
			c0.07,0,0.143-0.006,0.234-0.022c0.227-0.038,0.43-0.143,0.592-0.303l6.441-6.439c0.205-0.206,0.316-0.48,0.316-0.772
			c0-0.289-0.111-0.564-0.316-0.769c-0.203-0.205-0.482-0.314-0.771-0.314c-0.287,0-0.566,0.109-0.771,0.314l-4.479,4.479V12.417
			c0-3.766-3.059-6.823-6.832-6.823H40.36c0.482,0.696,0.93,1.425,1.346,2.178H47.479z M39.567,19.783
			c0-10.908-8.876-19.785-19.783-19.785c-10.913,0-19.786,8.877-19.786,19.785c0,10.908,8.873,19.789,19.786,19.789
			C30.691,39.572,39.567,30.691,39.567,19.783z M2.18,19.783c0-9.706,7.894-17.604,17.604-17.604
			c9.706,0,17.602,7.898,17.602,17.604c0,9.702-7.896,17.603-17.602,17.603C10.073,37.386,2.18,29.485,2.18,19.783z M25.424,65.648
			c-2.563,0-4.648-2.08-4.648-4.645V50.201l4.736,4.736c0.204,0.209,0.48,0.322,0.774,0.322c0.289,0,0.561-0.113,0.77-0.322
			c0.424-0.424,0.424-1.115,0-1.543l-6.441-6.439c-0.208-0.203-0.482-0.316-0.772-0.316c-0.073,0-0.144,0.006-0.24,0.02
			c-0.222,0.041-0.422,0.145-0.582,0.303l-6.445,6.445c-0.205,0.201-0.316,0.48-0.316,0.768s0.111,0.566,0.316,0.77
			c0.211,0.207,0.482,0.32,0.773,0.32c0.292,0,0.561-0.113,0.771-0.32l4.477-4.479v10.539c0,3.762,3.062,6.82,6.828,6.82h6.986
			c-0.482-0.693-0.939-1.418-1.361-2.176H25.424z M52.874,33.664c-10.91,0-19.784,8.873-19.784,19.783
			c0,10.914,8.874,19.785,19.784,19.785s19.787-8.871,19.787-19.785C72.661,42.537,63.784,33.664,52.874,33.664z M52.874,71.051
			c-9.703,0-17.603-7.893-17.603-17.604c0-9.705,7.899-17.607,17.603-17.607c9.707,0,17.605,7.902,17.605,17.607
			C70.479,63.158,62.581,71.051,52.874,71.051z M58.509,53.078c0.535-0.623,0.871-1.428,0.871-2.322
			c0-2.803-1.684-4.482-4.486-4.482V42.91c0-0.125-0.102-0.225-0.225-0.225h-1.344c-0.121,0-0.221,0.1-0.223,0.219v3.369h-1.795
			V42.91c0-0.125-0.105-0.225-0.225-0.225h-1.346c-0.117,0-0.217,0.1-0.221,0.219v3.369H45.7c-0.123,0-0.225,0.104-0.225,0.225
			v1.346c0.004,0.119,0.107,0.225,0.225,0.225h0.227c0.99,0,1.791,0.805,1.791,1.791v7.18c0,0.938-0.717,1.709-1.637,1.783
			c-0.09,0.01-0.172,0.074-0.195,0.168l-0.338,1.355c-0.018,0.068,0,0.139,0.041,0.193c0.043,0.049,0.104,0.086,0.174,0.086h3.754
			v3.369c0.004,0.119,0.104,0.215,0.221,0.215h1.346c0.119,0,0.225-0.1,0.225-0.225v-3.359h1.795v3.369
			c0.002,0.119,0.102,0.215,0.223,0.215h1.344c0.123,0,0.225-0.1,0.225-0.225v-3.359h0.898c2.799,0,4.482-1.686,4.482-4.484
			C60.274,54.826,59.558,53.697,58.509,53.078z M51.308,48.967h2.689c0.986,0,1.795,0.805,1.795,1.789
			c0,0.996-0.809,1.799-1.795,1.799h-2.689V48.967z M54.894,57.936h-3.586v-3.588h3.586c0.992,0,1.797,0.799,1.797,1.793
			C56.69,57.131,55.886,57.936,54.894,57.936z M20.012,30.331c0.002,0.122,0.097,0.216,0.223,0.216h1.341
			c0.124,0,0.227-0.1,0.227-0.224v-3.367h0.898c2.801,0,4.482-1.677,4.482-4.479c0-1.315-0.719-2.449-1.771-3.063
			c0.543-0.625,0.873-1.428,0.873-2.322c0-2.801-1.682-4.484-4.482-4.484v-3.36c0-0.125-0.104-0.229-0.227-0.229h-1.341
			c-0.126,0-0.221,0.1-0.223,0.222v3.368h-1.797l-0.001-3.36c0-0.125-0.099-0.229-0.224-0.229h-1.346
			c-0.122,0-0.216,0.1-0.222,0.222v3.368l-3.814,0.002c-0.124,0-0.226,0.099-0.226,0.225v1.344c0.008,0.12,0.104,0.226,0.226,0.226
			h0.222c0.992,0,1.8,0.8,1.8,1.793v7.172c0,0.937-0.722,1.711-1.637,1.786c-0.098,0.007-0.176,0.082-0.195,0.174l-0.345,1.347
			c-0.014,0.07,0,0.141,0.043,0.196c0.042,0.052,0.107,0.084,0.173,0.084h3.754v3.375c0.006,0.122,0.1,0.216,0.222,0.216h1.346
			c0.125,0,0.224-0.1,0.224-0.224l0.001-3.367h1.797V30.331z M18.214,15.301h2.69c0.991,0,1.797,0.8,1.797,1.792
			c0,0.993-0.806,1.793-1.797,1.793h-2.69V15.301z M18.214,24.27v-3.59h3.589c0.985,0,1.791,0.802,1.791,1.798
			c0,0.987-0.806,1.792-1.791,1.792H18.214z"/>
	</g>
</g>
</svg>
